<svg height="512" viewBox="0 0 512 512" width="512" xmlns="http://www.w3.org/2000/svg"><g id="flat"><path d="m352 24h96v200h-96z" fill="#e6af89"/><g fill="#fdc9a6"><path d="m464 88a16 16 0 0 0 -16-16h-96v-32h-19.574a30 30 0 0 0 -21.213 8.787l-23.213 23.213h-264v96h240l42.463 21.232a102.008 102.008 0 0 0 45.616 10.768h95.921a16 16 0 0 0 16-16 16 16 0 0 0 -16-16 16 16 0 0 0 16-16 16 16 0 0 0 -16-16 16 16 0 0 0 16-16 16 16 0 0 0 -16-16 16 16 0 0 0 16-16z"/><path d="m448 168a15.987 15.987 0 0 1 11.32 4.68 16.152 16.152 0 0 1 2.54 3.32h-61.86a8 8 0 0 1 0-16h61.86a15.994 15.994 0 0 1 -13.86 8z"/><path d="m448 136a15.987 15.987 0 0 1 11.32 4.68 16.152 16.152 0 0 1 2.54 3.32h-61.86a8 8 0 0 1 0-16h61.86a15.994 15.994 0 0 1 -13.86 8z"/><path d="m459.32 108.68a16.152 16.152 0 0 1 2.54 3.32h-61.86a8 8 0 0 1 0-16h61.86a15.994 15.994 0 0 1 -13.86 8 15.987 15.987 0 0 1 11.32 4.68z"/></g><path d="m392 104a8 8 0 0 1 8-8h61.86a15.994 15.994 0 0 1 -13.86 8z" fill="#f6bb92"/><path d="m160 56a16 16 0 0 1 16 16v96h32v19.574a30 30 0 0 1 -8.787 21.213l-23.213 23.213v232h-96v-208l-21.232-42.463a102.008 102.008 0 0 1 -10.768-45.616v-95.921a16 16 0 0 1 16-16 16 16 0 0 1 16 16 16 16 0 0 1 16-16 16 16 0 0 1 16 16 16 16 0 0 1 16-16 16 16 0 0 1 16 16 16 16 0 0 1 16-16z" fill="#f6bb92"/><path d="m234.161 224a14.1 14.1 0 0 1 9.968 4.129l11.871 11.871 11.871-11.871a14.1 14.1 0 0 1 9.968-4.129 14.1 14.1 0 0 1 13.374 9.639 21.709 21.709 0 0 1 -7.033 23.817l-28.18 22.544-28.18-22.544a21.709 21.709 0 0 1 -7.033-23.817 14.1 14.1 0 0 1 13.374-9.639z" fill="#e82f3e"/><path d="m392 136a8 8 0 0 1 8-8h61.86a15.994 15.994 0 0 1 -13.86 8z" fill="#f6bb92"/><path d="m392 168a8 8 0 0 1 8-8h61.86a15.994 15.994 0 0 1 -13.86 8z" fill="#f6bb92"/><path d="m144 128a8 8 0 0 0 8-8v-61.86a15.994 15.994 0 0 0 -8 13.86z" fill="#e6af89"/><path d="m112 128a8 8 0 0 0 8-8v-61.86a15.994 15.994 0 0 0 -8 13.86z" fill="#e6af89"/><path d="m80 128a8 8 0 0 0 8-8v-61.86a15.994 15.994 0 0 0 -8 13.86z" fill="#e6af89"/><path d="m64 400a16 16 0 0 0 16 16h96v32h19.574a30 30 0 0 0 21.213-8.787l23.213-23.213h248v-96h-224l-42.463-21.232a102.008 102.008 0 0 0 -45.616-10.768h-95.921a16 16 0 0 0 -16 16 16 16 0 0 0 16 16 16 16 0 0 0 -16 16 16 16 0 0 0 16 16 16 16 0 0 0 -16 16 16 16 0 0 0 16 16 16 16 0 0 0 -16 16z" fill="#fdc9a6"/><path d="m352 216v16l-21.232 42.463a102.008 102.008 0 0 0 -10.768 45.616v95.921a16 16 0 0 0 16 16 16 16 0 0 0 16-16 16 16 0 0 0 16 16 16 16 0 0 0 16-16 16 16 0 0 0 16 16 16 16 0 0 0 16-16 16 16 0 0 0 16 16 16 16 0 0 0 16-16v-96h32v-19.574a30 30 0 0 0 -8.787-21.213l-23.213-23.213v-40z" fill="#e6af89"/><path d="m416 360a8 8 0 0 1 8 8v61.86a15.994 15.994 0 0 1 -8-13.86z" fill="#c99978"/><path d="m384 360a8 8 0 0 1 8 8v61.86a15.994 15.994 0 0 1 -8-13.86z" fill="#c99978"/><path d="m352 360a8 8 0 0 1 8 8v61.86a15.994 15.994 0 0 1 -8-13.86z" fill="#c99978"/><path d="m136 384a8 8 0 0 1 -8 8h-61.86a15.994 15.994 0 0 1 13.86-8z" fill="#e6af89"/><path d="m136 352a8 8 0 0 1 -8 8h-61.86a15.994 15.994 0 0 1 13.86-8z" fill="#e6af89"/><path d="m136 320a8 8 0 0 1 -8 8h-61.86a15.994 15.994 0 0 1 13.86-8z" fill="#e6af89"/></g></svg>