<svg height="512pt" viewBox="-1 0 512 512" width="512pt" xmlns="http://www.w3.org/2000/svg"><path d="m364.382812 146.113281c.105469-7.914062 6.554688-14.265625 14.464844-14.265625h.550782c7.992187 0 14.472656 6.476563 14.472656 14.46875v-32.390625c0-7.992187 6.476562-14.472656 14.46875-14.472656h.441406c7.992188 0 14.472656 6.480469 14.472656 14.472656v-9.5625c0-7.992187 6.476563-14.46875 14.46875-14.46875h.441406c7.992188 0 14.472657 6.476563 14.472657 14.46875v20.710938c0-7.988281 6.476562-14.46875 14.46875-14.46875 7.992187 0 14.46875 6.480469 14.46875 14.46875v54.628906c0-8.273437 6.859375-14.949219 15.199219-14.652344 7.949218.28125 14.132812 7.054688 14.132812 15.007813v30.40625c0 15.652344-3.933594 31.105468-11.75 44.667968-7.464844 12.953126-16.136719 21.3125-22.195312 26.089844-4.820313 3.804688-7.601563 9.628906-7.601563 15.769532v35.035156h-81.777344v-39.863282c0-4.746093-1.710937-9.3125-4.730469-12.972656-12.941406-15.683594-17.203124-37.878906-18.316406-57.609375-1.40625-25.074219-.480468-50.289062-.152344-75.46875zm0 0" fill="#fed2a4"/><path d="m510.90625 180.058594v30.410156c0 15.648438-3.933594 31.101562-11.75 44.664062-7.464844 12.953126-16.132812 21.3125-22.191406 26.09375-4.824219 3.796876-7.601563 9.625-7.601563 15.765626v28.183593h-11.496093v-32.003906c0-6.140625 2.78125-14.328125 7.601562-18.125 6.050781-4.78125 14.726562-13.140625 22.191406-26.09375 7.816406-13.5625 11.75-29.015625 11.75-44.664063v-24.230468c0-6.109375-3.648437-11.523438-8.949218-13.828125 1.925781-.835938 4.070312-1.257813 6.316406-1.179688 7.945312.285157 14.128906 7.054688 14.128906 15.007813zm0 0" fill="#ffbd86"/><path d="m374.539062 359.867188h107.039063v-29.539063c0-2.847656-2.308594-5.152344-5.15625-5.152344h-96.726563c-2.847656 0-5.15625 2.304688-5.15625 5.152344zm0 0" fill="#ffc143"/><path d="m481.578125 354.070312h-14.699219v-28.898437h9.542969c2.847656 0 5.15625 2.308594 5.15625 5.15625zm0 0" fill="#ffb509"/><path d="m489.519531 512h-122.921875v-154.339844c0-1.980468 1.605469-3.589844 3.585938-3.589844h111.476562c4.339844 0 7.859375 3.523438 7.859375 7.863282zm0 0" fill="#e63950"/><path d="m489.519531 361.9375v150.0625h-19.496093v-150.058594c0-4.351562-3.515626-7.867187-7.859376-7.867187h19.496094c4.34375 0 7.859375 3.515625 7.859375 7.863281zm0 0" fill="#cc2e43"/><path d="m146.523438 204.535156c-.105469-7.910156-6.554688-14.265625-14.46875-14.265625h-.546876c-7.992187 0-14.472656 6.480469-14.472656 14.46875v-32.390625c0-7.992187-6.480468-14.472656-14.472656-14.472656h-.441406c-7.992188 0-14.46875 6.480469-14.46875 14.472656v-9.5625c0-7.988281-6.480469-14.46875-14.472656-14.46875h-.441407c-7.992187 0-14.46875 6.480469-14.46875 14.46875v20.710938c0-7.988282-6.480469-14.46875-14.46875-14.46875-7.992187 0-14.472656 6.480468-14.472656 14.46875v54.632812c0-8.277344-6.855469-14.953125-15.199219-14.65625-7.945312.28125-14.128906 7.054688-14.128906 15.007813v30.40625c0 15.652343 3.933594 31.105469 11.746094 44.667969 7.46875 12.953124 16.140625 21.3125 22.199218 26.089843 4.820313 3.804688 7.597657 9.628907 7.597657 15.769531v37.957032h81.777343v-42.785156c0-4.746094 1.710938-9.3125 4.734376-12.972657 12.941406-15.683593 17.203124-37.878906 18.3125-57.609375 1.410156-25.074218.484374-50.289062.15625-75.46875zm0 0" fill="#fed2a4"/><path d="m146.363281 280.007812c-1.113281 19.730469-5.371093 41.929688-18.308593 57.609376-3.023438 3.660156-4.734376 8.226562-4.734376 12.972656v33.011718h-12.957031v-33.011718c0-4.746094 1.710938-9.3125 4.730469-12.972656 12.949219-15.679688 17.207031-37.878907 18.320312-57.609376 1.414063-25.074218.484376-50.292968.15625-75.46875-.074218-5.699218-3.445312-10.589843-8.269531-12.878906 1.886719-.894531 3.980469-1.390625 6.207031-1.390625h.546876c7.917968 0 14.359374 6.351563 14.464843 14.269531.328125 25.175782 1.257813 50.394532-.15625 75.46875zm0 0" fill="#ffbd86"/><path d="m58.269531 242.183594v-79.398438c0-7.988281 6.476563-14.46875 14.46875-14.46875h.445313c1.882812 0 3.683594.363282 5.335937 1.015625l-2.347656 2.828125c-3.070313 3.695313-4.75 8.34375-4.75 13.148438v76.875c0 3.292968-2.671875 5.96875-5.96875 5.96875h-1.21875c-3.292969 0-5.964844-2.671875-5.964844-5.96875zm0 0" fill="#ffbd86"/><path d="m87.652344 242.183594v-69.835938c0-7.992187 6.480468-14.46875 14.46875-14.46875h.445312c2.871094 0 5.546875.835938 7.796875 2.277344l-3.417969 4.613281c-3.652343 4.921875-5.625 10.890625-5.625 17.019531v60.394532c0 3.296875-2.671874 5.96875-5.96875 5.96875h-1.730468c-3.296875 0-5.96875-2.671875-5.96875-5.96875zm0 0" fill="#ffbd86"/><path d="m136.367188 417.601562h-107.039063v-28.847656c0-2.851562 2.308594-5.15625 5.15625-5.15625h96.726563c2.847656 0 5.15625 2.304688 5.15625 5.15625zm0 0" fill="#ffc143"/><path d="m21.386719 512h122.925781v-95.917969c0-1.980469-1.609375-3.585937-3.589844-3.585937h-111.476562c-4.339844 0-7.859375 3.519531-7.859375 7.859375zm0 0" fill="#6fd6a2"/><path d="m144.3125 416.085938v95.914062h-17.90625v-95.914062c0-1.988282-1.609375-3.585938-3.589844-3.585938h17.910156c1.976563 0 3.585938 1.597656 3.585938 3.585938zm0 0" fill="#43cd8e"/><path d="m136.367188 412.496094h-14.703126v-28.898438h9.546876c2.847656 0 5.15625 2.304688 5.15625 5.15625zm0 0" fill="#ffb509"/><path d="m315.0625 512h-137.9375v-211.539062c0-2.222657 1.804688-4.027344 4.027344-4.027344h125.085937c4.871094 0 8.824219 3.953125 8.824219 8.824218zm0 0" fill="#60b8ff"/><path d="m315.066406 305.257812v206.742188h-19.816406v-206.742188c0-4.867187-3.949219-8.828124-8.824219-8.828124h19.8125c4.878907 0 8.828125 3.960937 8.828125 8.828124zm0 0" fill="#22a7ff"/><path d="m174.644531 63.085938c.113281-8.878907 7.351563-16.011719 16.230469-16.011719h.617188c8.96875 0 16.238281 7.273437 16.238281 16.238281v-36.347656c0-8.96875 7.269531-16.238282 16.238281-16.238282h.496094c8.96875 0 16.234375 7.269532 16.234375 16.238282v-10.726563c.003906-8.96875 7.273437-16.238281 16.238281-16.238281h.5c8.964844 0 16.234375 7.269531 16.234375 16.238281v23.238281c0-8.964843 7.269531-16.234374 16.238281-16.234374s16.238282 7.269531 16.238282 16.234374v61.300782c0-9.285156 7.691406-16.777344 17.054687-16.445313 8.914063.316407 15.855469 7.917969 15.855469 16.839844v34.121094c0 17.5625-4.414063 34.902343-13.183594 50.121093-8.378906 14.535157-18.109375 23.914063-24.90625 29.277344-5.40625 4.269532-8.527344 10.804688-8.527344 17.691406v38.460938h-91.761718v-43.875c0-5.328125-1.921876-10.449219-5.3125-14.558594-14.519532-17.597656-19.304688-42.503906-20.550782-64.644531-1.582031-28.132813-.542968-56.429687-.171875-84.679687zm0 0" fill="#fed2a4"/><path d="m339.054688 101.171875v34.125c0 17.558594-4.414063 34.898437-13.179688 50.117187-8.378906 14.535157-18.105469 23.914063-24.902344 29.28125-5.410156 4.261719-8.53125 10.796876-8.53125 17.691407v31.621093h-12.898437v-35.90625c0-6.894531 3.117187-16.078124 8.527343-20.339843 6.792969-5.367188 16.527344-14.746094 24.90625-29.28125 8.765626-15.21875 13.179688-32.558594 13.179688-50.117188v-27.191406c0-6.855469-4.09375-12.925781-10.039062-15.515625 2.160156-.9375 4.566406-1.410156 7.089843-1.320312 8.910157.316406 15.847657 7.914062 15.847657 16.835937zm0 0" fill="#ffbd86"/><path d="m186.039062 296.433594h120.109376v-26.640625c0-3.195313-2.589844-5.785157-5.785157-5.785157h-108.539062c-3.195313 0-5.785157 2.589844-5.785157 5.785157zm0 0" fill="#ffc143"/><path d="m306.148438 296.433594h-16.496094v-32.425782h10.707031c3.195313 0 5.789063 2.589844 5.789063 5.785157zm0 0" fill="#ffb509"/><g fill="#ffbd86"><path d="m43.800781 169.027344c-7.992187 0-14.472656 6.480468-14.472656 14.46875v66.273437c0 3.292969 2.671875 5.96875 5.96875 5.96875s5.96875-2.671875 5.96875-5.96875v-66.679687c0-4.769532 1.691406-9.378906 4.773437-13.019532l.644532-.753906c-1-.242187-2.882813-.289062-2.882813-.289062zm0 0"/><path d="m273.566406 14.414062v83.570313c0 1.867187-.753906 3.558594-1.976562 4.785156-1.226563 1.226563-2.917969 1.980469-4.785156 1.980469-3.742188 0-6.773438-3.03125-6.773438-6.765625v-78.5c0-4.9375-1.722656-14.78125-4.886719-18.578125l-.476562-.75c.742187-.1054688 1.496093-.15625 2.269531-.15625h.496094c8.351562 0 15.226562 6.300781 16.132812 14.414062zm0 0"/><path d="m240.730469 97.71875c0 1.949219-.785157 3.699219-2.0625 4.96875-1.265625 1.277344-3.03125 2.0625-4.96875 2.0625-3.886719 0-7.03125-3.144531-7.03125-7.03125v-67.335938c0-6.296874-2.03125-12.441406-5.792969-17.515624l-1.164062-1.578126c1.359374-.371093 2.78125-.566406 4.257812-.566406h.496094c8.96875 0 16.234375 7.28125 16.234375 16.238282zm0 0"/><path d="m207.542969 60.839844v51.53125c0 1.941406-.785157 3.703125-2.0625 4.972656-1.265625 1.277344-3.019531 2.058594-4.96875 2.058594-3.886719 0-7.03125-3.144532-7.03125-7.03125v-44.613282c0-6.300781-2.03125-12.445312-5.785157-17.515624l-1.769531-2.394532c1.554688-.503906 3.226563-.773437 4.945313-.773437h.621094c8.121093 0 14.855468 5.972656 16.050781 13.765625zm0 0"/><path d="m306.261719 105.703125v7.566406c0 3.390625-2.753907 6.144531-6.148438 6.132813-1.6875 0-3.234375-.679688-4.339843-1.792969-1.113282-1.113281-1.800782-2.636719-1.800782-4.339844v-77.636719c0-4.476562-1.457031-8.816406-4.125-12.394531h.0625c4.484375 0 8.546875 1.816407 11.484375 4.753907s4.753907 7 4.753907 11.484374v68.15625c0-.652343.039062-1.300781.113281-1.929687zm0 0"/></g><path d="m186.039062 300.585938h120.109376v-30.792969c0-3.195313-2.589844-5.785157-5.785157-5.785157h-108.539062c-3.195313 0-5.785157 2.589844-5.785157 5.785157zm0 0" fill="#ffc143"/><path d="m306.148438 296.433594h-16.496094v-32.425782h10.707031c3.195313 0 5.789063 2.589844 5.789063 5.785157zm0 0" fill="#ffb509"/><path d="m452.578125 103.027344v80.707031c0 1.863281-.753906 3.554687-1.980469 4.78125-1.226562 1.226563-2.917968 1.980469-4.78125 1.980469-3.742187 0-6.777344-3.03125-6.777344-6.761719v-78.5c0-3.835937-1.039062-10.628906-2.988281-15.25.546875-.058594 1.101563-.089844 1.671875-.089844h.441406c7.535157 0 13.742188 5.769531 14.414063 13.132813zm0 0" fill="#ffbd86"/><path d="m423.433594 183.464844c0 1.949218-.785156 3.699218-2.0625 4.96875-1.269532 1.277344-3.03125 2.0625-4.96875 2.0625-3.886719 0-7.03125-3.144532-7.03125-7.03125v-67.332032c0-5.753906-1.691406-11.375-4.855469-16.167968 1.214844-.339844 2.492187-.515625 3.824219-.515625h.441406c7.992188 0 14.476562 6.484375 14.476562 14.476562zm0 0" fill="#ffbd86"/><path d="m393.84375 145.433594v51.199218c0 1.9375-.785156 3.699219-2.0625 4.96875-1.269531 1.277344-3.023438 2.058594-4.96875 2.058594-3.886719 0-7.03125-3.144531-7.03125-7.027344v-47.335937c0-6-1.847656-11.867187-5.269531-16.792969 1.371093-.433594 2.824219-.660156 4.339843-.660156h.546876c7.691406 0 13.992187 6.011719 14.445312 13.589844zm0 0" fill="#ffbd86"/><path d="m481.742188 199.023438c0 3.390624-2.75 6.144531-6.144532 6.132812-1.691406 0-3.234375-.679688-4.339844-1.792969-1.113281-1.113281-1.804687-2.640625-1.804687-4.339843v-77.644532c0-3.816406-1.050781-7.527344-3.027344-10.753906.226563-.007812.453125-.019531.679688-.019531 3.988281 0 7.617187 1.617187 10.238281 4.238281 2.617188 2.617188 4.234375 6.234375 4.234375 10.234375zm0 0" fill="#ffbd86"/><path d="m315.0625 512h-137.9375v-211.539062c0-2.222657 1.804688-4.027344 4.027344-4.027344h125.085937c4.871094 0 8.824219 3.953125 8.824219 8.824218zm0 0" fill="#60b8ff"/><path d="m315.066406 305.257812v206.742188h-19.816406v-206.742188c0-4.867187-3.949219-8.828124-8.824219-8.828124h19.8125c4.878907 0 8.828125 3.960937 8.828125 8.828124zm0 0" fill="#22a7ff"/></svg>