<svg id="Layer_1" enable-background="new 0 0 511 511" height="512" viewBox="0 0 511 511" width="512" xmlns="http://www.w3.org/2000/svg"><g><g><path d="m255.5 18.806c-94.705 0-153.044 53.419-153.204 53.51 0 0-2.425 3.027-2.879 5.04-3.685 16.357-7.127 38.278-7.127 54.275 0 135.915 114.617 246.07 250.532 246.07 52.338 0 110.568-25.084 149.539-55.244.872-.675 3.638-5.208 3.638-5.208.171-1.049 5.598-22.657 5.598-52.345 0-135.916-110.181-246.098-246.097-246.098z" fill="#afe6ff"/><g><path d="m495.999 317.248c-42.038 33.484-95.277 53.505-153.199 53.505-135.916 0-246.097-110.181-246.097-246.097 0-17.965 1.937-35.469 5.592-52.34-.006.004.006-.004 0 0-56.596 45.089-92.892 114.601-92.892 192.587 0 135.916 110.181 246.097 246.097 246.097 116.939 0 216.291-82.013 240.499-193.752z" fill="#73c8f0"/></g></g><g><g><g><path d="m255.5 0-54.556 79.441c-71.012 103.404 2.894 245.051 128.331 244.27 16.007-.1 27.338-2.84 31.428-9.436 11.724-18.908 18.493-41.21 18.493-65.093 0-109.065-123.696-249.182-123.696-249.182z" fill="#eb3b61"/><g fill="#d62b58"><path d="m329.154 251.32c-.436-.04-.872-.083-1.307-.128-31.646-3.272-54.972-30.032-56.418-61.813-.022-.484-.056-.97-.101-1.458-1.317-14.211-12.799-25.659-27.012-26.946-.142-.013-.283-.025-.425-.036-14.741-1.131-26.273-13.012-26.863-27.785-1.775-44.477 17.713-93.679 38.7-132.894-.137-.156-.228-.26-.228-.26s-123.696 136.127-123.696 249.182c0 68.315 55.38 123.696 123.696 123.696 44.015 0 83.256-23.131 105.205-58.601 16.168-26.127-.957-60.121-31.551-62.957z"/><circle cx="312.626" cy="171.567" r="21.026"/><circle cx="257.495" cy="92.35" r="9.31"/></g><path d="m226.834 183.182c-.096-.006-.191-.012-.286-.017-5.82-.321-11.099-3.195-14.715-7.767-2.548-3.222-6.515-5.273-10.951-5.212-7.357.101-13.461 6.251-13.51 13.608-.032 4.676 2.286 8.824 5.839 11.319 4.68 3.287 7.424 8.574 7.948 14.269 1.084 11.764 10.853 21.96 24.023 21.96 13.82 0 24.923-11.628 24.06-25.634-.736-11.969-10.443-21.728-22.408-22.526z" fill="#eb3b61"/></g><circle cx="260.387" cy="285.667" fill="#eb3b61" r="12.203"/></g><g><g><path d="m461.388 228.331c-10.612-.93-20.256 6.184-22.501 16.597l-13.632 63.231-99.996 83.884 42.897 29.208 108.131-114.434 4.324-55.803c.896-11.553-7.68-21.672-19.223-22.683z" fill="#fab9af"/><path d="m383.049 330.04c-1.116-5.073-3.44-9.959-7.01-14.214-5.91-7.045-16.412-7.965-23.457-2.055l-37.455 31.42-26.195 24.895c-23.179 19.444 9.781 97.194 17.845 126.355l10.022 6.843c23.341-5.994 45.391-15.334 65.582-27.502l-25.941-100.055z" fill="#fab9af"/><g fill="#fa968c"><path d="m294.236 421.689c-8.064-29.16 1.634-60.344 24.813-79.789l-32.622 27.366c-23.179 19.444-32.877 50.628-24.813 79.789l16.836 60.884c13.092-1.216 25.904-3.461 38.349-6.657z"/><path d="m318.006 408.323 53.924-45.589c9.833-8.249 13.691-20.969 11.111-32.692l-62.791 52.674c-7.691 6.451-8.696 17.916-2.244 25.607z"/><path d="m368.157 421.251 96.399-80.866c6.246-5.24 10.121-12.773 10.75-20.901l.773-9.975.208-2.691-97.658 81.923c-9.447 7.924-13.517 20.561-10.472 32.51z"/></g></g><g><path d="m85.744 308.159-13.632-63.231c-2.245-10.413-11.889-17.527-22.501-16.597-11.543 1.011-20.119 11.13-19.223 22.683l4.324 55.803 118.928 123.491 32.1-38.265z" fill="#fab9af"/><path d="m202.897 351.702-9.727-8.779-33.586-28.174c-7.043-5.908-18.123-5.424-24.623 1.077-3.57 4.255-5.893 9.141-7.009 14.214l26.609 45.687-25.948 100.081c20.158 12.154 42.2 21.499 65.584 27.495l27.94-65.442c12.523-29.899 4.826-64.441-19.24-86.159z" fill="#fab9af"/><g fill="#fa968c"><path d="m224.573 369.266-32.623-27.366c23.179 19.444 32.877 50.628 24.813 79.789l-22.568 81.614c12.432 3.188 25.244 5.428 38.353 6.641l16.837-60.889c8.065-29.161-1.633-60.344-24.812-79.789z"/><path d="m192.994 408.323-53.924-45.589c-9.833-8.249-13.691-20.969-11.111-32.692l62.791 52.674c7.692 6.451 8.696 17.916 2.244 25.607z"/><path d="m132.371 388.74-97.658-81.923.209 2.691.773 9.975c.63 8.128 4.504 15.661 10.75 20.901l96.399 80.867c3.044-11.949-1.026-24.586-10.473-32.511z"/></g></g></g></g></g></svg>