<svg id="Capa_1" enable-background="new 0 0 511.997 511.997" height="512" viewBox="0 0 511.997 511.997" width="512" xmlns="http://www.w3.org/2000/svg"><g><g><path d="m441.509 504.496h-371.021c-5.809 0-10.518-4.709-10.518-10.518v-186.968c0-5.809 4.709-10.518 10.518-10.518h371.021c5.809 0 10.518 4.709 10.518 10.518v186.969c0 5.808-4.709 10.517-10.518 10.517z" fill="#eaf6ff"/><path d="m452.028 307.006v186.973c0 5.806-4.712 10.518-10.518 10.518h-35.14c5.806 0 10.518-4.712 10.518-10.518v-186.973c0-5.806-4.712-10.518-10.518-10.518h35.14c5.806 0 10.518 4.712 10.518 10.518z" fill="#d9ecfd"/><path d="m452.028 427.31v66.672c0 5.806-4.712 10.518-10.518 10.518h-165.875v-77.19z" fill="#8dcafc"/><path d="m452.028 427.31v66.672c0 5.806-4.712 10.518-10.518 10.518h-35.14c5.806 0 10.518-4.712 10.518-10.518v-66.672z" fill="#64b9fc"/><path d="m210.032 376.249h-21.286v-21.286c0-5.233-4.242-9.474-9.474-9.474h-23.383c-5.233 0-9.474 4.242-9.474 9.474v21.286h-21.286c-5.233 0-9.474 4.242-9.474 9.474v23.383c0 5.233 4.242 9.474 9.474 9.474h21.286v21.286c0 5.233 4.242 9.474 9.474 9.474h23.383c5.233 0 9.474-4.242 9.474-9.474v-21.286h21.286c5.233 0 9.474-4.242 9.474-9.474v-23.383c0-5.232-4.241-9.474-9.474-9.474z" fill="#fb3a82"/><path d="m441.509 296.492h-371.021c-5.809 0-10.518-4.709-10.518-10.518v-15.455c0-5.809 4.709-10.518 10.518-10.518h371.021c5.809 0 10.518 4.709 10.518 10.518v15.455c0 5.809-4.709 10.518-10.518 10.518z" fill="#fb3a82"/><path d="m452.028 270.52v15.451c0 5.816-4.712 10.518-10.518 10.518h-35.14c5.806 0 10.518-4.701 10.518-10.518v-15.451c0-5.806-4.712-10.518-10.518-10.518h35.14c5.806 0 10.518 4.712 10.518 10.518z" fill="#fb1466"/></g><g><path d="m255.999 7.5c-2.712 0-5.154 1.669-6.108 4.208-16.226 43.197-59.211 111.492-59.211 140.759 0 36.074 29.244 65.318 65.318 65.318s65.318-29.244 65.318-65.318c0-29.267-42.985-97.562-59.21-140.759-.953-2.539-3.395-4.208-6.107-4.208z" fill="#fb3a82"/><path d="m321.317 152.467c0 36.076-29.239 65.315-65.315 65.315-6.163 0-12.116-.852-17.764-2.451 27.441-7.741 47.54-32.952 47.54-62.864 0-23.707-28.209-73.025-47.54-113.865 4.523-9.582 8.572-18.69 11.654-26.894.957-2.535 3.397-4.207 6.111-4.207s5.154 1.672 6.1 4.207c16.229 43.196 59.214 111.488 59.214 140.759z" fill="#fb1466"/><g><path d="m179.272 337.989h-23.383c-9.359 0-16.974 7.615-16.974 16.974v13.786h-13.786c-9.36 0-16.975 7.615-16.975 16.975v23.383c0 9.359 7.615 16.974 16.975 16.974h13.786v13.786c0 9.36 7.615 16.975 16.974 16.975h23.383c9.36 0 16.975-7.615 16.975-16.975v-13.786h13.786c9.359 0 16.974-7.615 16.974-16.974v-23.383c0-9.36-7.615-16.975-16.974-16.975h-13.786v-13.786c0-9.359-7.615-16.974-16.975-16.974zm30.76 45.76c1.088 0 1.974.886 1.974 1.975v23.383c0 1.088-.886 1.974-1.974 1.974h-21.286c-4.142 0-7.5 3.358-7.5 7.5v21.286c0 1.089-.886 1.975-1.975 1.975h-23.383c-1.088 0-1.974-.886-1.974-1.975v-21.286c0-4.142-3.358-7.5-7.5-7.5h-21.286c-1.089 0-1.975-.886-1.975-1.974v-23.383c0-1.089.886-1.975 1.975-1.975h21.286c4.142 0 7.5-3.358 7.5-7.5v-21.286c0-1.088.886-1.974 1.974-1.974h23.383c1.089 0 1.975.886 1.975 1.974v21.286c0 4.142 3.358 7.5 7.5 7.5z"/><path d="m459.526 270.52c0-9.935-8.083-18.018-18.018-18.018h-371.02c-9.935 0-18.018 8.083-18.018 18.018v15.455c0 3.927 1.277 7.554 3.419 10.518-2.141 2.964-3.419 6.59-3.419 10.518v92.836c0 4.142 3.358 7.5 7.5 7.5s7.5-3.358 7.5-7.5v-92.837c0-1.664 1.354-3.018 3.018-3.018h197.643v193.004h-197.643c-1.664 0-3.018-1.354-3.018-3.018v-58.206c0-4.142-3.358-7.5-7.5-7.5s-7.5 3.358-7.5 7.5v58.206c0 9.935 8.083 18.018 18.018 18.018h371.021c9.935 0 18.018-8.083 18.018-18.018v-186.968c0-3.927-1.277-7.554-3.419-10.518 2.141-2.964 3.419-6.59 3.419-10.518v-15.454zm-122.113 33.472c4.142 0 7.5-3.358 7.5-7.5s-3.358-7.5-7.5-7.5h-266.925c-1.664 0-3.018-1.354-3.018-3.018v-15.454c0-1.664 1.354-3.018 3.018-3.018h371.021c1.664 0 3.018 1.354 3.018 3.018v15.455c0 1.664-1.354 3.018-3.018 3.018h-68.169c-4.142 0-7.5 3.358-7.5 7.5s3.358 7.5 7.5 7.5h68.169c1.664 0 3.018 1.354 3.018 3.018v112.797h-161.396v-115.816zm104.096 193.005h-158.378v-62.189h161.395v59.171c0 1.664-1.353 3.018-3.017 3.018z"/><path d="m331.556 400.59c13.198 0 23.936-10.737 23.936-23.936v-20.925c0-13.198-10.738-23.936-23.936-23.936s-23.936 10.737-23.936 23.936v20.925c0 13.199 10.737 23.936 23.936 23.936zm-8.936-44.861c0-4.927 4.009-8.936 8.936-8.936s8.936 4.008 8.936 8.936v20.925c0 4.927-4.008 8.936-8.936 8.936-4.927 0-8.936-4.008-8.936-8.936z"/><path d="m379.77 354.393h11.845c4.142 0 7.5-3.358 7.5-7.5s-3.358-7.5-7.5-7.5h-11.845c-4.142 0-7.5 3.358-7.5 7.5s3.357 7.5 7.5 7.5z"/><path d="m379.77 377.492h37.518c4.142 0 7.5-3.358 7.5-7.5s-3.358-7.5-7.5-7.5h-37.518c-4.142 0-7.5 3.358-7.5 7.5s3.357 7.5 7.5 7.5z"/><path d="m379.77 400.59h37.518c4.142 0 7.5-3.358 7.5-7.5s-3.358-7.5-7.5-7.5h-37.518c-4.142 0-7.5 3.358-7.5 7.5s3.357 7.5 7.5 7.5z"/><path d="m423.005 457.12h-116.677c-4.142 0-7.5 3.358-7.5 7.5s3.358 7.5 7.5 7.5h116.678c4.142 0 7.5-3.358 7.5-7.5s-3.359-7.5-7.501-7.5z"/><path d="m255.999 225.285c40.152 0 72.818-32.666 72.818-72.818 0-12.072-5.678-29.25-18.987-57.441-1.769-3.747-6.241-5.349-9.984-3.581-3.746 1.769-5.349 6.238-3.581 9.984 7.535 15.96 17.552 38.615 17.552 51.038 0 31.881-25.937 57.818-57.818 57.818s-57.818-25.937-57.818-57.818c0-16.459 17.205-50.888 32.385-81.264 9.41-18.83 19.125-38.27 25.433-54.47 6.292 16.161 15.936 35.463 24.493 52.589 1.852 3.706 6.355 5.208 10.061 3.357 3.706-1.852 5.208-6.356 3.357-10.062-8.818-17.65-18.813-37.655-24.782-53.546-2.039-5.426-7.315-9.071-13.129-9.071-5.815 0-11.091 3.645-13.129 9.07-5.982 15.925-16.017 36.006-25.722 55.427-17.468 34.954-33.967 67.97-33.967 87.969 0 40.153 32.666 72.819 72.818 72.819z"/></g></g></g></svg>