<svg id="Capa_1" enable-background="new 0 0 512 512" height="512" viewBox="0 0 512 512" width="512" xmlns="http://www.w3.org/2000/svg"><g><g><g><g><g><path d="m294.979 147.163 38.776 106.272 172.548 172.547c4.077 4.077 4.102 10.688.047 14.787-22.556 22.799-45.301 45.411-67.928 68.14-4.091 4.109-10.736 4.121-14.836.021l-173.916-173.913h-22.408v-188.075l-25.455-25.359c-10.682-10.642-10.698-27.933-.036-38.595 10.648-10.648 27.911-10.648 38.559 0l37.889 37.889c7.435 7.436 13.156 16.407 16.76 26.286z" fill="#c86f5c"/><path d="m506.259 425.943-172.501-172.501-38.784-106.279c-3.602-9.883-9.314-18.853-16.755-26.282l-37.883-37.895c-5.332-5.32-12.3-7.975-19.279-7.975s-13.959 2.654-19.279 7.975c-4.965 4.965-7.607 11.364-7.939 17.857.474-.036.948-.047 1.422-.047 6.979 0 13.959 2.654 19.279 7.987l37.895 37.883c7.43 7.441 13.153 16.412 16.755 26.282l38.784 106.279 26.77 26.77c-18.989 19.037-37.988 38.064-57.01 57.078l106.846 106.847c10.878-8.544 17.869-21.803 17.869-36.663v-28.073c0-11.618 14.047-17.436 22.262-9.221l63.174 63.174 18.374-18.374c4.093-4.092 4.093-10.729 0-14.822z" fill="#ba5d4f"/><path d="m455.342 298-45.581-45.581c-7.436-7.436-16.407-13.156-26.286-16.761l-105.113-38.353c-.763-.278-1.451-.73-2.009-1.32l-182.487-192.705c-4.06-4.287-10.862-4.374-15.037-.199-25.11 25.11-48.008 48.007-73.131 73.13-4.093 4.093-4.103 10.731-.01 14.824 33.784 33.784 172.304 172.304 188.403 188.404.983.983 1.529 2.309 1.529 3.699v100.43c0 12.412 9.652 22.984 22.056 23.424 13.023.463 23.725-9.957 23.725-22.876v24.604c0 12.642 10.248 22.891 22.891 22.891 12.642 0 22.891-10.248 22.891-22.891v11.737c0 12.412 9.652 22.983 22.056 23.424 13.023.463 23.725-9.956 23.725-22.876v12.253c0 12.642 10.248 22.89 22.89 22.89 12.642 0 22.891-10.248 22.891-22.891v-122.163c0-4.671 5.65-7.008 8.949-3.702l29.076 29.129c10.529 10.558 27.587 10.695 38.285.308 10.913-10.596 11.042-28.073.287-38.829z" fill="#ffcec0"/><path d="m463.323 317.274c0 7.11-2.759 14.21-8.266 19.559-4.183 4.06-9.342 6.516-14.703 7.357.224-1.413.337-2.849.337-4.284 0-6.965-2.658-13.941-7.985-19.268l-45.576-45.587c-7.436-7.436-16.408-13.156-26.289-16.756l-105.117-38.359c-.763-.278-1.45-.73-2.009-1.32l-189.89-200.53 15.017-15.016c4.172-4.172 10.965-4.08 15.022.205l182.484 192.71c.558.59 1.246 1.041 2.009 1.32l105.117 38.359c9.881 3.6 18.853 9.32 26.289 16.756l45.576 45.576c5.326 5.326 7.984 12.302 7.984 19.278z" fill="#fdb0a0"/><g><path d="m141.734 294.444c0 12.642 10.248 22.891 22.891 22.891h27.946c12.642 0 22.891-10.248 22.891-22.891 0-12.642-10.248-22.89-22.891-22.89h-27.946c-12.643-.001-22.891 10.248-22.891 22.89z" fill="#f69583"/><path d="m215.466 294.438c0 12.643-10.25 22.893-22.893 22.893h-26.33c12.644 0 22.893-10.25 22.893-22.893 0-6.316-2.559-12.039-6.707-16.175-4.136-4.147-9.871-6.707-16.187-6.707h26.33c6.316 0 12.051 2.56 16.187 6.707 4.147 4.136 6.707 9.859 6.707 16.175z" fill="#ea806f"/></g><g><path d="m104.861 248.663c0 12.642 10.248 22.891 22.891 22.891h46.676c12.642 0 22.89-10.248 22.89-22.891 0-12.642-10.248-22.891-22.89-22.891h-46.676c-12.643 0-22.891 10.249-22.891 22.891z" fill="#fdb0a0"/><path d="m197.312 248.663c0 12.644-10.238 22.893-22.882 22.893h-26.33c12.643 0 22.893-10.25 22.893-22.893 0-6.316-2.559-12.051-6.707-16.187-4.147-4.147-9.859-6.707-16.187-6.707h26.33c6.328 0 12.039 2.559 16.187 6.707 4.136 4.136 6.696 9.872 6.696 16.187z" fill="#f9a08f"/></g><g><path d="m77.616 202.882c0 12.642 10.248 22.891 22.891 22.891h47.215c12.642 0 22.891-10.248 22.891-22.89 0-12.642-10.248-22.891-22.891-22.891h-47.215c-12.643-.001-22.891 10.248-22.891 22.89z" fill="#f69583"/><path d="m170.615 202.877c0 12.643-10.25 22.894-22.893 22.894h-26.33c12.644 0 22.893-10.25 22.893-22.894 0-6.316-2.56-12.039-6.707-16.175-4.147-4.147-9.859-6.707-16.187-6.707h26.33c6.328 0 12.039 2.56 16.187 6.707 4.147 4.135 6.707 9.859 6.707 16.175z" fill="#ea806f"/></g><g><path d="m46.918 157.101c0 12.642 10.248 22.891 22.891 22.891h35.974c12.642 0 22.891-10.248 22.891-22.891 0-12.642-10.248-22.891-22.891-22.891h-35.974c-12.642 0-22.891 10.248-22.891 22.891z" fill="#fdb0a0"/><path d="m128.679 157.102c0 12.644-10.25 22.893-22.893 22.893h-26.33c12.644 0 22.893-10.25 22.893-22.893 0-6.328-2.56-12.039-6.707-16.187-4.135-4.147-9.871-6.707-16.187-6.707h26.33c6.316 0 12.051 2.559 16.187 6.707 4.148 4.147 6.707 9.859 6.707 16.187z" fill="#f9a08f"/></g></g></g><g><path d="m241.398 358.726v25.396c0 10.135-6.593 18.729-15.722 21.727v-47.123c0-4.339 3.522-7.861 7.861-7.861 4.35.001 7.861 3.522 7.861 7.861z" fill="#fdb0a0"/></g><g><path d="m287.18 370.098v38.623c0 6.32-2.557 12.043-6.697 16.183-2.505 2.505-5.586 4.433-9.024 5.555v-60.36c0-4.339 3.522-7.861 7.861-7.861 4.348-.001 7.86 3.521 7.86 7.86z" fill="#fdb0a0"/></g><g><path d="m387.693 307.39c-3.301-3.302-8.951-.964-8.951 3.7v122.167c0 6.32-2.557 12.043-6.697 16.183-2.505 2.505-5.586 4.423-9.024 5.555v-136.956c-.001-12.939 15.399-19.467 24.672-10.649z" fill="#fdb0a0"/></g><g><path d="m332.961 385.82v35.185c0 10.146-6.593 18.74-15.722 21.738v-56.923c0-4.35 3.522-7.861 7.861-7.861 4.35 0 7.861 3.511 7.861 7.861z" fill="#fdb0a0"/></g></g></g></g></svg>